<?xml version="1.0" encoding="UTF-8" standalone="no"?>
<!-- Created with Inkscape (http://www.inkscape.org/) -->

<svg
   width="32"
   height="32"
   viewBox="0 0 8.4666666 8.4666666"
   version="1.1"
   id="svg1"
   xml:space="preserve"
   inkscape:export-filename="favicon.png"
   inkscape:export-xdpi="96"
   inkscape:export-ydpi="96"
   inkscape:version="1.3.2 (091e20ef0f, 2023-11-25)"
   sodipodi:docname="favicon.svg"
   xmlns:inkscape="http://www.inkscape.org/namespaces/inkscape"
   xmlns:sodipodi="http://sodipodi.sourceforge.net/DTD/sodipodi-0.dtd"
   xmlns="http://www.w3.org/2000/svg"
   xmlns:svg="http://www.w3.org/2000/svg"
   xmlns:rdf="http://www.w3.org/1999/02/22-rdf-syntax-ns#"
   xmlns:cc="http://creativecommons.org/ns#"
   xmlns:dc="http://purl.org/dc/elements/1.1/"><title
     id="title1">Favicon</title><sodipodi:namedview
     id="namedview1"
     pagecolor="#505050"
     bordercolor="#ffffff"
     borderopacity="1"
     inkscape:showpageshadow="0"
     inkscape:pageopacity="0"
     inkscape:pagecheckerboard="1"
     inkscape:deskcolor="#d1d1d1"
     inkscape:document-units="mm"
     inkscape:zoom="5.0602329"
     inkscape:cx="19.860746"
     inkscape:cy="4.9404841"
     inkscape:current-layer="layer1" /><defs
     id="defs1" /><g
     inkscape:label="Calque 1"
     inkscape:groupmode="layer"
     id="layer1"><path
       style="fill:#25d6a2;stroke-width:0.0669784;fill-opacity:1"
       d="M 3.7143172,8.4433635 C 2.9419523,8.3429373 2.277467,8.0713532 1.6464235,7.5981889 1.4372325,7.4413355 1.0546195,7.0641068 0.89409994,6.8564531 0.43851641,6.2670948 0.14873452,5.5981722 0.03400178,4.8710313 c -0.04533571,-0.287325 -0.04533571,-0.9873486 0,-1.2746732 C 0.14876252,2.8690396 0.43915391,2.1988403 0.89426739,1.6109356 1.0440432,1.4174589 1.4120007,1.0495014 1.605477,0.89972566 2.2575499,0.39493799 3.0037876,0.09555102 3.8115543,0.01465844 4.1108464,-0.01531375 4.6536113,0.00249677 4.9348149,0.05151776 5.6502841,0.1762423 6.3106951,0.47138458 6.8775778,0.91975112 7.0644347,1.0675432 7.4157207,1.4222983 7.5620033,1.6109357 8.0519171,2.2427006 8.3464602,2.9570758 8.4373347,3.7339341 8.6233091,5.3237876 7.9153828,6.8617313 6.5851754,7.7576839 6.0949676,8.0878593 5.5382278,8.3100221 4.9348149,8.4162471 4.6528882,8.4658795 3.999172,8.4804014 3.7143172,8.4433624 Z m 0.2793213,-1.1483068 -0.00463,-0.677841 -0.1417699,0.00568 c -0.298946,0.011958 -0.9358222,0.091341 -0.9647315,0.12025 -0.015265,0.015264 0.1745074,0.3743012 0.2888492,0.5464962 0.061078,0.091983 0.1831461,0.2368786 0.2859694,0.3394514 0.1517874,0.1514181 0.2047472,0.1916533 0.3440538,0.26139 0.090558,0.045335 0.1719091,0.082424 0.1807813,0.082424 0.00949,0 0.01422,-0.2789282 0.01149,-0.677841 z M 4.6446879,7.897262 C 4.9524248,7.7430226 5.2473336,7.4088898 5.486249,6.9437707 5.535095,6.8486787 5.575058,6.7630486 5.575058,6.7534817 c 0,-0.035746 -0.5963428,-0.1178388 -0.948092,-0.1305173 l -0.1594918,-0.00575 -0.00463,0.6791014 -0.00463,0.6791037 0.040086,-0.012433 c 0.022049,-0.00684 0.087932,-0.036414 0.1464128,-0.065725 z M 2.9145878,7.7438926 C 2.7587658,7.5255345 2.6216701,7.3008518 2.5217764,7.1001212 2.4495429,6.9549738 2.3901337,6.8564531 2.3748402,6.8564531 c -0.034411,0 -0.4197252,0.1297172 -0.5267784,0.1773434 -0.071801,0.03194 -0.081814,0.042084 -0.063431,0.064233 0.029786,0.035892 0.320467,0.2521355 0.4449771,0.3310315 0.1631892,0.1034052 0.6141185,0.3262938 0.7027008,0.3473361 0.00361,8.616e-4 -0.00436,-0.013768 -0.01772,-0.032505 z M 5.9059484,7.6071048 C 6.2114368,7.4560846 6.7179454,7.1040722 6.6797499,7.0693301 6.6433736,7.0362437 6.1270838,6.8571191 6.0668261,6.8566797 6.0497683,6.8564999 6.0357314,6.8664214 6.035629,6.8786044 6.0350368,6.9509927 5.7406126,7.4681808 5.5470102,7.7369107 l -0.02788,0.038697 0.094416,-0.035315 C 5.6654785,7.7208711 5.7970544,7.6609353 5.9059435,7.6071053 Z M 1.5966167,6.6300981 C 1.6843375,6.5917404 1.8557915,6.5270175 1.9776257,6.4862719 2.0994597,6.445529 2.2081389,6.4091032 2.2191346,6.4053293 2.2327462,6.400645 2.2225806,6.3400557 2.1872974,6.2154389 2.117251,5.9680923 2.0533228,5.6704418 2.0128706,5.403303 1.9827617,5.2044568 1.9667972,5.0459038 1.9321467,4.6014123 L 1.9214374,4.4640721 H 1.1938266 0.46621536 l 0.0120285,0.1462007 c 0.0277775,0.3376283 0.15202969,0.8077659 0.30446645,1.1520287 0.16485346,0.3723075 0.56885819,0.973978 0.63506509,0.9457816 0.010639,-0.00452 0.09112,-0.039623 0.1788413,-0.077985 z m 5.5428292,-0.00845 C 7.3248405,6.402017 7.534677,6.0696448 7.6569025,5.8020176 7.8129484,5.4603345 7.9501578,4.9514471 7.9782287,4.6102723 L 7.9902572,4.4640716 H 7.262646 6.5350353 l -0.01044,0.1373402 c -0.058209,0.7656423 -0.1065476,1.054675 -0.2965606,1.7732277 -0.00415,0.015706 0.074337,0.050801 0.2419532,0.1081827 0.136454,0.046714 0.3198703,0.1171255 0.4075912,0.1564663 0.08772,0.039343 0.1648567,0.072399 0.1714126,0.073461 0.00656,0.00107 0.047263,-0.039936 0.090455,-0.091104 z M 3.0027054,6.237366 C 3.2004348,6.205108 3.6802207,6.154868 3.9003913,6.143367 l 0.088606,-0.00463 V 5.3058357 4.4729328 l -0.7956296,-0.00461 -0.7956299,-0.00461 0.012529,0.2261313 c 0.023573,0.4255306 0.1006782,0.9206582 0.2035515,1.3071333 0.074677,0.2805462 0.082764,0.2981566 0.1313255,0.2859687 0.022226,-0.00558 0.1381285,-0.026087 0.2575618,-0.045573 z m 2.7693773,0.00328 C 5.818829,6.1203233 5.9324165,5.6225631 5.9726156,5.3618653 6.018296,5.0656508 6.0530337,4.7192941 6.0533519,4.5569409 l 2.246e-4,-0.09322 -0.7930299,0.00461 -0.7930303,0.00461 v 0.832907 0.8329034 l 0.097467,0.00457 c 0.2316558,0.010914 0.700033,0.062267 0.9126493,0.1000606 0.1267075,0.022522 0.2405437,0.042084 0.252968,0.043462 0.012427,0.0014 0.031111,-0.019416 0.041523,-0.046219 z M 1.9321445,3.8659767 C 1.9667978,3.4214857 1.9827568,3.2629321 2.0128685,3.064086 2.0533152,2.7969847 2.1172472,2.4993006 2.1872635,2.2520627 L 2.2390656,2.0691474 2.1961745,2.0528389 C 2.1725805,2.0438692 2.1317024,2.0314008 2.1053285,2.0251308 2.023229,2.0056127 1.5833217,1.839363 1.4927941,1.7936418 l -0.086106,-0.043489 -0.043855,0.041149 C 1.2976987,1.8524214 1.107818,2.1128036 1.0032863,2.2843465 0.72541825,2.7403466 0.51934053,3.3576577 0.4782471,3.8571157 L 0.46621856,4.0033169 H 1.1938299 1.9214405 Z M 3.9889978,3.1615534 V 2.3286502 l -0.062025,-0.00404 C 3.4481702,2.2934924 2.9413299,2.2336914 2.7505909,2.1858188 2.6956771,2.1720367 2.6902207,2.1833906 2.6138181,2.4704201 2.5110816,2.8563816 2.4315292,3.3674526 2.4092151,3.7848586 l -0.0117,0.2188265 0.7957408,-0.00461 0.7957403,-0.00461 z M 6.0533519,3.9102801 C 6.0528711,3.6610501 5.9806602,3.0785495 5.9100243,2.7539624 5.8609686,2.5285425 5.7684493,2.1968778 5.7517435,2.1865526 c -0.00774,-0.00479 -0.068609,0.00256 -0.1352561,0.016347 -0.1883408,0.038933 -0.5358837,0.081364 -0.8566102,0.1045822 l -0.292403,0.021168 -0.00463,0.8151818 c -0.00253,0.4483501 -8.077e-4,0.8251501 0.00388,0.8373335 0.00662,0.017263 0.182668,0.022152 0.7976485,0.022152 H 6.0535258 Z M 7.9782287,3.8571161 C 7.9497518,3.5110051 7.8114957,3.0015597 7.6523964,2.6564949 7.5229155,2.3756665 7.2261464,1.9156349 7.0952043,1.7927707 L 7.0529166,1.7530894 6.867781,1.8348397 C 6.7659566,1.8798023 6.5789764,1.9510808 6.4522684,1.9932369 6.2975671,2.0447066 6.22391,2.0774584 6.2280365,2.0929396 6.4164436,2.7996038 6.4660915,3.0964304 6.5245972,3.8659775 l 0.010441,0.1373406 h 0.7276099 0.7276112 z m -3.9845886,-2.686045 0.00463,-0.67910286 -0.040086,0.012169 C 3.9361359,0.51083048 3.8543034,0.5489114 3.7763292,0.58876241 3.5971104,0.6803581 3.327967,0.94233089 3.1722357,1.176763 3.0693639,1.3316223 2.8814017,1.6787724 2.8814017,1.713908 c 0,0.039341 0.8203588,0.1455837 1.0632801,0.1377033 l 0.044302,-0.00144 z M 4.9016472,1.8220345 C 5.1642039,1.800297 5.5533846,1.7448445 5.5716621,1.7265667 5.588838,1.7093925 5.4074344,1.3619473 5.2851265,1.1777565 5.1299233,0.94402571 4.8605941,0.68202125 4.68013,0.58921436 4.6021569,0.54911471 4.5204169,0.51086014 4.4984866,0.50420419 L 4.458616,0.49210246 V 1.1637543 c 0,0.3694083 0.00468,0.6763214 0.010376,0.6820289 0.010693,0.010692 0.028392,0.00972 0.4326552,-0.023749 z M 6.5054293,1.4753028 c 0.08772,-0.033687 0.166165,-0.067883 0.1743206,-0.075991 C 6.698393,1.3807798 6.5058745,1.2246837 6.2780965,1.0736465 5.9676287,0.8677776 5.3767742,0.60008933 5.549803,0.74369079 5.6280803,0.80865515 5.9131445,1.2934122 6.0146771,1.5342183 l 0.038638,0.091635 0.1463115,-0.04465 C 6.2800982,1.5566449 6.41771,1.5089894 6.5054303,1.4753026 Z M 2.4984463,1.4115705 C 2.6077129,1.1855609 2.7412346,0.9609811 2.8562737,0.80971462 2.8993427,0.75308476 2.934578,0.7036192 2.934578,0.69979107 c 0,-0.0289265 -0.5151386,0.21821592 -0.7029609,0.33725183 -0.1269287,0.080443 -0.4170611,0.2962594 -0.4473666,0.3327755 -0.018791,0.022641 -0.011754,0.031352 0.045707,0.056572 0.1090416,0.047859 0.5081008,0.1834773 0.5415271,0.1840351 0.021612,3.639e-4 0.058825,-0.057927 0.1269593,-0.1988551 z"
       id="path1" /></g><metadata
     id="metadata1"><rdf:RDF><cc:License
         rdf:about="http://artlibre.org/licence/lal"><cc:permits
           rdf:resource="http://creativecommons.org/ns#Reproduction" /><cc:permits
           rdf:resource="http://creativecommons.org/ns#Distribution" /><cc:permits
           rdf:resource="http://creativecommons.org/ns#DerivativeWorks" /><cc:requires
           rdf:resource="http://creativecommons.org/ns#ShareAlike" /><cc:requires
           rdf:resource="http://creativecommons.org/ns#Notice" /><cc:requires
           rdf:resource="http://creativecommons.org/ns#Attribution" /></cc:License><cc:Work
         rdf:about=""><cc:license
           rdf:resource="http://artlibre.org/licence/lal" /><dc:creator><cc:Agent><dc:title>MasterBootRecord (MBR32)</dc:title></cc:Agent></dc:creator><dc:rights><cc:Agent><dc:title>Distribué sous Licence Art Libre (LA1.2) par OpenAurore (au nom de MasterBootRecord)</dc:title></cc:Agent></dc:rights><dc:publisher><cc:Agent><dc:title>Lothringer OpenAurore</dc:title></cc:Agent></dc:publisher><dc:title>Favicon</dc:title><dc:date>20240802</dc:date></cc:Work></rdf:RDF></metadata></svg>
